HIERARCHY
ROOT Hips
{
	OFFSET 62.890800 8.863803 43.568401
	CHANNELS 6 Xposition Yposition Zposition Zrotation Xrotation Yrotation
	JOINT Chest
	{
		OFFSET -0.160400 1.630001 7.806301
		CHANNELS 6 Xposition Yposition Zposition Zrotation Xrotation Yrotation
		JOINT Chest2
		{
			OFFSET 0.000000 0.000000 3.197998
			CHANNELS 6 Xposition Yposition Zposition Zrotation Xrotation Yrotation
			JOINT Neck
			{
				OFFSET 0.000000 0.000001 7.440701
				CHANNELS 6 Xposition Yposition Zposition Zrotation Xrotation Yrotation
				JOINT Head
				{
					OFFSET 0.000000 0.000000 2.173901
					CHANNELS 6 Xposition Yposition Zposition Zrotation Xrotation Yrotation
					End Site
					{
						OFFSET 0.000000 0.000001 10.420303
					}
				}
			}
			JOINT LeftCollar
			{
				OFFSET 2.426399 -1.880099 4.759399
				CHANNELS 6 Xposition Yposition Zposition Zrotation Xrotation Yrotation
				JOINT LeftShoulder
				{
					OFFSET 4.420197 0.000000 0.000000
					CHANNELS 6 Xposition Yposition Zposition Zrotation Xrotation Yrotation
					JOINT LeftElbow
					{
						OFFSET 0.000000 -0.000001 -10.347099
						CHANNELS 6 Xposition Yposition Zposition Zrotation Xrotation Yrotation
						JOINT LeftWrist
						{
							OFFSET 0.000000 -0.000001 -12.496300
							CHANNELS 6 Xposition Yposition Zposition Zrotation Xrotation Yrotation
							End Site
							{
								OFFSET 0.000000 0.000000 -2.173901
							}
						}
					}
				}
			}
			JOINT RightCollar
			{
				OFFSET -2.781502 -1.903799 5.072601
				CHANNELS 6 Xposition Yposition Zposition Zrotation Xrotation Yrotation
				JOINT RightShoulder
				{
					OFFSET -4.012100 0.000000 0.000000
					CHANNELS 6 Xposition Yposition Zposition Zrotation Xrotation Yrotation
					JOINT RightElbow
					{
						OFFSET 0.000000 -0.000001 -10.346600
						CHANNELS 6 Xposition Yposition Zposition Zrotation Xrotation Yrotation
						JOINT RightWrist
						{
							OFFSET 0.000000 -0.000001 -12.562599
							CHANNELS 6 Xposition Yposition Zposition Zrotation Xrotation Yrotation
							End Site
							{
								OFFSET 0.000000 0.000000 -2.173901
							}
						}
					}
				}
			}
		}
	}
	JOINT LeftHip
	{
		OFFSET 2.047997 -0.047200 -2.693199
		CHANNELS 6 Xposition Yposition Zposition Zrotation Xrotation Yrotation
		JOINT LeftKnee
		{
			OFFSET 0.000000 -0.000001 -18.824400
			CHANNELS 6 Xposition Yposition Zposition Zrotation Xrotation Yrotation
			JOINT LeftAnkle
			{
				OFFSET 0.000000 -0.000002 -19.078199
				CHANNELS 6 Xposition Yposition Zposition Zrotation Xrotation Yrotation
				End Site
				{
					OFFSET 0.000000 -9.342100 0.000001
				}
			}
		}
	}
	JOINT RightHip
	{
		OFFSET -2.129898 -0.022300 -2.538300
		CHANNELS 6 Xposition Yposition Zposition Zrotation Xrotation Yrotation
		JOINT RightKnee
		{
			OFFSET 0.000000 -0.000001 -18.644600
			CHANNELS 6 Xposition Yposition Zposition Zrotation Xrotation Yrotation
			JOINT RightAnkle
			{
				OFFSET 0.000000 -0.000002 -18.801399
				CHANNELS 6 Xposition Yposition Zposition Zrotation Xrotation Yrotation
				End Site
				{
					OFFSET 0.000000 -8.914600 0.000001
				}
			}
		}
	}
}
MOTION
Frames: 5
Frame Time: 0.041667
-19.521317 -49.577606 31.295856 -309.981223 1.075534 -13.675290 -0.160407 1.629998 7.806308 70.907903 16.086607 0.240812 0.000003 -0.000003 3.197996 -16.129352 -0.645902 -0.463765 -0.000001 -0.000004 7.440701 -14.622614 4.055967 13.379817 -0.000001 0.000001 2.173913 -3.282220 -0.337568 -4.253501 2.426405 -1.880104 4.759398 -175.239828 171.738072 -169.351453 4.420194 0.000006 -0.000000 -15.402399 34.927620 -45.968478 -0.000005 -0.000004 -10.347085 334.752953 -45.563656 -0.666228 0.000001 -0.000003 -12.496304 139.864311 15.592639 52.136299 -2.781491 -1.903801 5.072607 -138.965376 -201.094156 164.126440 -4.012097 -0.000002 -0.000007 28.742092 -16.261058 478.305361 0.000002 -0.000003 -10.346598 -55.704878 -10.099554 -11.863428 0.000001 -0.000004 -12.562598 1326.643270 -179.959994 229.063153 2.047991 -0.047195 -2.693197 -247.561354 -16.202069 66.666942 -0.000008 -0.000001 -18.824398 92.140645 128.322070 -163.778470 -0.000002 0.000002 -19.078199 300.945047 28.135841 20.827373 -2.129904 -0.022297 -2.538299 -602.515302 39.357421 -22.304299 0.000001 -0.000001 -18.644594 514.298054 171.397423 99.963882 0.000001 0.000001 -18.801405 -67.178988 -18.657749 -59.601795
-19.522903 -49.569695 31.287752 -309.905763 1.074215 -13.674416 -0.160402 1.629999 7.806300 70.865132 16.064197 0.235558 -0.000002 -0.000005 3.198000 -16.139479 -0.668712 -0.465713 -0.000012 0.000000 7.440703 -14.616451 4.032194 13.396586 -0.000002 0.000006 2.173905 -3.295643 -0.376216 -4.257535 2.426401 -1.880100 4.759396 -175.215143 171.771458 -169.382435 4.420197 -0.000002 -0.000002 -15.511892 34.944385 -45.892898 0.000008 -0.000001 -10.347093 334.553758 -45.552649 -0.832620 0.000003 0.000002 -12.496294 139.948131 15.586775 52.163972 -2.781503 -1.903801 5.072605 -139.268145 -200.949356 164.355511 -4.012093 -0.000006 -0.000006 28.924342 -16.096592 477.968770 0.000003 -0.000007 -10.346598 -56.234546 -9.946250 -11.950417 0.000003 -0.000002 -12.562595 1327.247496 -179.988476 229.175058 2.047988 -0.047198 -2.693205 -247.687029 -16.271877 66.690561 0.000007 0.000002 -18.824400 92.608752 128.281813 -164.067564 -0.000009 0.000000 -19.078201 300.687330 28.121960 21.029394 -2.129900 -0.022297 -2.538302 -602.868997 39.394684 -22.107067 0.000002 0.000002 -18.644590 514.502304 171.147848 99.967407 -0.000003 0.000005 -18.801403 -67.017126 -18.702233 -59.619799
-19.524017 -49.560993 31.281155 -309.858307 1.087730 -13.673182 -0.160401 1.629994 7.806300 70.819964 16.043139 0.237920 0.000006 0.000006 3.197996 -16.132898 -0.693707 -0.466499 -0.000004 -0.000001 7.440703 -14.588179 3.991113 13.414656 -0.000006 0.000003 2.173902 -3.321907 -0.423841 -4.256637 2.426405 -1.880100 4.759394 -175.183629 171.842819 -169.419017 4.420196 0.000001 -0.000000 -15.572719 34.956498 -45.803819 0.000009 -0.000007 -10.347084 334.393166 -45.537831 -0.928654 0.000001 -0.000002 -12.496306 139.955521 15.614125 52.164521 -2.781502 -1.903802 5.072606 -139.637385 -200.781662 164.674085 -4.012100 -0.000001 0.000006 29.157111 -15.931196 477.560270 0.000004 0.000000 -10.346599 -57.004506 -9.741466 -12.085805 0.000000 -0.000003 -12.562595 1328.105477 -180.032968 229.303712 2.047998 -0.047202 -2.693200 -247.796695 -16.350710 66.716284 0.000007 -0.000004 -18.824404 93.230108 128.230723 -164.463100 0.000004 -0.000003 -19.078199 300.340903 28.114344 21.276915 -2.129892 -0.022301 -2.538298 -603.148980 39.424050 -21.933491 -0.000002 -0.000002 -18.644602 514.667322 170.923927 99.968308 0.000005 0.000001 -18.801405 -66.886765 -18.761227 -59.624997
-19.524818 -49.551502 31.275755 -309.839128 1.112831 -13.673176 -0.160399 1.630000 7.806305 70.768348 16.026585 0.246074 0.000007 0.000000 3.197997 -16.111211 -0.719405 -0.466529 -0.000008 -0.000001 7.440701 -14.540431 3.933750 13.436702 0.000004 -0.000001 2.173899 -3.356752 -0.475974 -4.250238 2.426402 -1.880105 4.759394 -175.143700 171.954616 -169.455477 4.420197 0.000002 -0.000000 -15.585906 34.960586 -45.710846 0.000001 -0.000000 -10.347082 334.209653 -45.519372 -0.984230 -0.000014 0.000003 -12.496302 139.929676 15.640594 52.209727 -2.781497 -1.903800 5.072596 -140.042251 -200.602779 165.065182 -4.012095 -0.000005 -0.000002 29.419384 -15.776846 477.098986 0.000004 0.000000 -10.346598 -57.543435 -9.591454 -12.176367 0.000015 0.000006 -12.562596 1328.720850 -180.070260 229.399990 2.048006 -0.047196 -2.693194 -247.882455 -16.427413 66.742252 0.000009 -0.000006 -18.824404 93.971546 128.171737 -164.946651 -0.000003 -0.000001 -19.078199 299.915410 28.108896 21.572954 -2.129895 -0.022296 -2.538301 -603.297714 39.440347 -21.823576 -0.000005 0.000004 -18.644600 514.765239 170.789536 99.964818 -0.000003 -0.000003 -18.801407 -66.830150 -18.833229 -59.618925
-19.525398 -49.540699 31.271151 -309.850548 1.150363 -13.672757 -0.160404 1.629995 7.806301 70.720223 16.010346 0.257663 0.000004 -0.000001 3.197999 -16.081206 -0.743041 -0.466233 -0.000012 -0.000001 7.440702 -14.478925 3.862879 13.466286 -0.000005 -0.000002 2.173898 -3.396872 -0.528728 -4.238801 2.426406 -1.880102 4.759394 -175.089072 172.104265 -169.491759 4.420191 0.000001 -0.000000 -15.559926 34.965938 -45.610784 -0.000003 0.000004 -10.347096 333.986388 -45.502590 -1.030078 -0.000006 -0.000003 -12.496299 139.892369 15.673030 52.258334 -2.781506 -1.903801 5.072604 -141.289881 -200.765761 165.620285 -4.012102 -0.000001 -0.000004 30.595354 -15.674222 476.839658 0.000004 -0.000001 -10.346597 -57.937565 -9.481844 -12.240486 -0.000001 0.000001 -12.562598 1329.194045 -180.068812 229.389280 2.047992 -0.047200 -2.693196 -247.933572 -16.495452 66.772394 0.000000 -0.000002 -18.824404 94.826925 128.104597 -165.516930 -0.000003 -0.000005 -19.078196 299.402135 28.105006 21.931982 -2.129899 -0.022297 -2.538291 -603.309079 39.445698 -21.778183 0.000007 -0.000005 -18.644598 514.789882 170.742162 99.955140 -0.000003 -0.000004 -18.801401 -66.835874 -18.911887 -59.601412
